<mxfile host="65bd71144e">
    <diagram id="u13LbXfbahBCry0LBogs" name="Page-1">
        <mxGraphModel dx="1002" dy="602" grid="1" gridSize="10" guides="1" tooltips="1" connect="1" arrows="1" fold="1" page="1" pageScale="1" pageWidth="850" pageHeight="1100" math="0" shadow="0">
            <root>
                <mxCell id="0"/>
                <mxCell id="1" parent="0"/>
                <mxCell id="33" value="" style="rounded=0;whiteSpace=wrap;html=1;" vertex="1" parent="1">
                    <mxGeometry x="180" y="150" width="480" height="290" as="geometry"/>
                </mxCell>
                <mxCell id="53" style="edgeStyle=none;html=1;exitX=0.75;exitY=1;exitDx=0;exitDy=0;" edge="1" parent="1" source="32" target="51">
                    <mxGeometry relative="1" as="geometry">
                        <Array as="points">
                            <mxPoint x="552" y="430"/>
                            <mxPoint x="600" y="430"/>
                        </Array>
                    </mxGeometry>
                </mxCell>
                <mxCell id="32" value="" style="rounded=0;whiteSpace=wrap;html=1;" vertex="1" parent="1">
                    <mxGeometry x="379" y="170" width="231" height="230" as="geometry"/>
                </mxCell>
                <mxCell id="18" style="edgeStyle=none;html=1;entryX=0;entryY=0.5;entryDx=0;entryDy=0;exitX=0.25;exitY=0;exitDx=0;exitDy=0;" edge="1" parent="1" source="33" target="69">
                    <mxGeometry relative="1" as="geometry">
                        <mxPoint x="300" y="180" as="sourcePoint"/>
                        <mxPoint x="259" y="100" as="targetPoint"/>
                        <Array as="points">
                            <mxPoint x="300" y="120"/>
                            <mxPoint x="260" y="120"/>
                            <mxPoint x="180" y="120"/>
                            <mxPoint x="180" y="42"/>
                        </Array>
                    </mxGeometry>
                </mxCell>
                <mxCell id="19" style="edgeStyle=none;html=1;exitX=0.25;exitY=0;exitDx=0;exitDy=0;entryX=1;entryY=0.5;entryDx=0;entryDy=0;" edge="1" parent="1" source="33" target="70">
                    <mxGeometry relative="1" as="geometry">
                        <mxPoint x="440" y="180" as="sourcePoint"/>
                        <mxPoint x="368" y="100" as="targetPoint"/>
                        <Array as="points">
                            <mxPoint x="300" y="120"/>
                            <mxPoint x="430" y="120"/>
                            <mxPoint x="430" y="40"/>
                        </Array>
                    </mxGeometry>
                </mxCell>
                <mxCell id="21" style="edgeStyle=none;html=1;exitX=0.75;exitY=1;exitDx=0;exitDy=0;exitPerimeter=0;entryX=0.5;entryY=0;entryDx=0;entryDy=0;entryPerimeter=0;" edge="1" parent="1" source="5" target="58">
                    <mxGeometry relative="1" as="geometry">
                        <mxPoint x="559" y="200" as="targetPoint"/>
                    </mxGeometry>
                </mxCell>
                <mxCell id="5" value="" style="sketch=0;points=[[0,0,0],[0.25,0,0],[0.5,0,0],[0.75,0,0],[1,0,0],[0,1,0],[0.25,1,0],[0.5,1,0],[0.75,1,0],[1,1,0],[0,0.25,0],[0,0.5,0],[0,0.75,0],[1,0.25,0],[1,0.5,0],[1,0.75,0]];outlineConnect=0;fontColor=#232F3E;gradientColor=#945DF2;gradientDirection=north;fillColor=#5A30B5;strokeColor=#ffffff;dashed=0;verticalLabelPosition=bottom;verticalAlign=top;align=center;html=1;fontSize=12;fontStyle=0;aspect=fixed;shape=mxgraph.aws4.resourceIcon;resIcon=mxgraph.aws4.managed_streaming_for_kafka;" vertex="1" parent="1">
                    <mxGeometry x="499" y="23" width="78" height="78" as="geometry"/>
                </mxCell>
                <mxCell id="6" value="" style="sketch=0;aspect=fixed;html=1;points=[];align=center;image;fontSize=12;image=img/lib/mscae/Cache_Redis_Product.svg;" vertex="1" parent="1">
                    <mxGeometry x="465" y="480" width="50" height="42" as="geometry"/>
                </mxCell>
                <mxCell id="8" value="" style="sketch=0;points=[[0,0,0],[0.25,0,0],[0.5,0,0],[0.75,0,0],[1,0,0],[0,1,0],[0.25,1,0],[0.5,1,0],[0.75,1,0],[1,1,0],[0,0.25,0],[0,0.5,0],[0,0.75,0],[1,0.25,0],[1,0.5,0],[1,0.75,0]];outlineConnect=0;fontColor=#232F3E;gradientColor=#4D72F3;gradientDirection=north;fillColor=#3334B9;strokeColor=#ffffff;dashed=0;verticalLabelPosition=bottom;verticalAlign=top;align=center;html=1;fontSize=12;fontStyle=0;aspect=fixed;shape=mxgraph.aws4.resourceIcon;resIcon=mxgraph.aws4.documentdb_with_mongodb_compatibility;" vertex="1" parent="1">
                    <mxGeometry x="720" y="195" width="78" height="78" as="geometry"/>
                </mxCell>
                <mxCell id="20" style="edgeStyle=none;html=1;exitX=0.5;exitY=0;exitDx=0;exitDy=0;entryX=0.25;entryY=1;entryDx=0;entryDy=0;entryPerimeter=0;exitPerimeter=0;" edge="1" parent="1" source="54">
                    <mxGeometry relative="1" as="geometry">
                        <mxPoint x="452" y="212" as="sourcePoint"/>
                        <mxPoint x="517.5" y="101" as="targetPoint"/>
                        <Array as="points">
                            <mxPoint x="449" y="120"/>
                            <mxPoint x="489" y="120"/>
                            <mxPoint x="518" y="120"/>
                        </Array>
                    </mxGeometry>
                </mxCell>
                <mxCell id="25" style="edgeStyle=none;html=1;exitX=0.995;exitY=0.63;exitDx=0;exitDy=0;entryX=0;entryY=0.5;entryDx=0;entryDy=0;entryPerimeter=0;exitPerimeter=0;" edge="1" parent="1" source="58" target="8">
                    <mxGeometry relative="1" as="geometry">
                        <mxPoint x="599" y="240" as="sourcePoint"/>
                        <Array as="points"/>
                    </mxGeometry>
                </mxCell>
                <mxCell id="27" style="edgeStyle=none;html=1;exitX=0.995;exitY=0.63;exitDx=0;exitDy=0;entryX=0;entryY=0.5;entryDx=0;entryDy=0;entryPerimeter=0;exitPerimeter=0;" edge="1" parent="1" source="55" target="26">
                    <mxGeometry relative="1" as="geometry">
                        <mxPoint x="530" y="350" as="sourcePoint"/>
                    </mxGeometry>
                </mxCell>
                <mxCell id="43" style="edgeStyle=none;html=1;exitX=0.5;exitY=1;exitDx=0;exitDy=0;exitPerimeter=0;" edge="1" parent="1" source="55" target="6">
                    <mxGeometry relative="1" as="geometry">
                        <mxPoint x="490" y="390" as="sourcePoint"/>
                    </mxGeometry>
                </mxCell>
                <mxCell id="26" value="" style="outlineConnect=0;dashed=0;verticalLabelPosition=bottom;verticalAlign=top;align=center;html=1;shape=mxgraph.aws3.postgre_sql_instance;fillColor=#2E73B8;gradientColor=none;" vertex="1" parent="1">
                    <mxGeometry x="720" y="318" width="60" height="63" as="geometry"/>
                </mxCell>
                <mxCell id="38" value="" style="edgeStyle=none;html=1;entryX=0;entryY=0.5;entryDx=0;entryDy=0;" edge="1" parent="1" target="32">
                    <mxGeometry relative="1" as="geometry">
                        <mxPoint x="310" y="285" as="sourcePoint"/>
                    </mxGeometry>
                </mxCell>
                <mxCell id="40" value="" style="edgeStyle=none;html=1;" edge="1" parent="1" source="39" target="45">
                    <mxGeometry relative="1" as="geometry">
                        <mxPoint x="230" y="285" as="targetPoint"/>
                    </mxGeometry>
                </mxCell>
                <mxCell id="39" value="" style="verticalLabelPosition=bottom;html=1;verticalAlign=top;align=center;strokeColor=none;fillColor=#00BEF2;shape=mxgraph.azure.user;" vertex="1" parent="1">
                    <mxGeometry x="71" y="260" width="50" height="50" as="geometry"/>
                </mxCell>
                <mxCell id="45" value="API Gateway&lt;br&gt;&lt;br&gt;(Load Balance, Rate Limiter, Authentication and Authorization, Fallback method)" style="sketch=0;outlineConnect=0;fontColor=#232F3E;gradientColor=none;strokeColor=#ffffff;fillColor=#232F3E;dashed=0;verticalLabelPosition=middle;verticalAlign=bottom;align=center;html=1;whiteSpace=wrap;fontSize=10;fontStyle=1;spacing=3;shape=mxgraph.aws4.productIcon;prIcon=mxgraph.aws4.api_gateway;" vertex="1" parent="1">
                    <mxGeometry x="230" y="170" width="80" height="230" as="geometry"/>
                </mxCell>
                <mxCell id="51" value="Elasticsearch" style="sketch=0;outlineConnect=0;fontColor=#232F3E;gradientColor=none;strokeColor=#ffffff;fillColor=#232F3E;dashed=0;verticalLabelPosition=middle;verticalAlign=bottom;align=center;html=1;whiteSpace=wrap;fontSize=10;fontStyle=1;spacing=3;shape=mxgraph.aws4.productIcon;prIcon=mxgraph.aws4.elasticsearch_service;" vertex="1" parent="1">
                    <mxGeometry x="570" y="460" width="70" height="90" as="geometry"/>
                </mxCell>
                <mxCell id="57" style="edgeStyle=none;html=1;exitX=0.5;exitY=1;exitDx=0;exitDy=0;exitPerimeter=0;entryX=0.005;entryY=0.63;entryDx=0;entryDy=0;entryPerimeter=0;" edge="1" parent="1" source="54" target="55">
                    <mxGeometry relative="1" as="geometry">
                        <Array as="points">
                            <mxPoint x="450" y="350"/>
                        </Array>
                    </mxGeometry>
                </mxCell>
                <mxCell id="54" value="Microservice 1" style="sketch=0;html=1;dashed=0;whitespace=wrap;fillColor=#2875E2;strokeColor=#ffffff;points=[[0.005,0.63,0],[0.1,0.2,0],[0.9,0.2,0],[0.5,0,0],[0.995,0.63,0],[0.72,0.99,0],[0.5,1,0],[0.28,0.99,0]];verticalLabelPosition=bottom;align=center;verticalAlign=top;shape=mxgraph.kubernetes.icon;prIcon=api" vertex="1" parent="1">
                    <mxGeometry x="426" y="204" width="50" height="46" as="geometry"/>
                </mxCell>
                <mxCell id="55" value="Microservice 3&lt;br&gt;" style="sketch=0;html=1;dashed=0;whitespace=wrap;fillColor=#2875E2;strokeColor=#ffffff;points=[[0.005,0.63,0],[0.1,0.2,0],[0.9,0.2,0],[0.5,0,0],[0.995,0.63,0],[0.72,0.99,0],[0.5,1,0],[0.28,0.99,0]];verticalLabelPosition=bottom;align=center;verticalAlign=top;shape=mxgraph.kubernetes.icon;prIcon=api" vertex="1" parent="1">
                    <mxGeometry x="464.5" y="320" width="50" height="48" as="geometry"/>
                </mxCell>
                <mxCell id="58" value="Microservice 2&lt;br&gt;" style="sketch=0;html=1;dashed=0;whitespace=wrap;fillColor=#2875E2;strokeColor=#ffffff;points=[[0.005,0.63,0],[0.1,0.2,0],[0.9,0.2,0],[0.5,0,0],[0.995,0.63,0],[0.72,0.99,0],[0.5,1,0],[0.28,0.99,0]];verticalLabelPosition=bottom;align=center;verticalAlign=top;shape=mxgraph.kubernetes.icon;prIcon=api" vertex="1" parent="1">
                    <mxGeometry x="533" y="204" width="50" height="48" as="geometry"/>
                </mxCell>
                <mxCell id="69" value="Discovery Server &lt;br&gt;Container" style="sketch=0;html=1;verticalAlign=top;labelPosition=center;verticalLabelPosition=bottom;align=center;spacingTop=-6;fontSize=11;fontStyle=1;fontColor=#999999;shape=image;aspect=fixed;imageAspect=0;image=data:image/svg+xml,PHN2ZyB4bWxucz0iaHR0cDovL3d3dy53My5vcmcvMjAwMC9zdmciIHhtbG5zOnY9Imh0dHBzOi8vdmVjdGEuaW8vbmFubyIgd2lkdGg9IjM3Ny4xNTkzMDIxNjAyNjMwNSIgaGVpZ2h0PSIzMzYuMTYyNDk5MDAzMzEwOCIgdmlld0JveD0iLTAuMDU4MDAwMDA1NzgxNjUwNTQgMC4xMTI5OTk5OTgwMzMwNDY3MiA5OS43OTAwMDA5MTU1MjczNCA4OC45NDMwMDA3OTM0NTcwMyI+JiN4YTs8c3R5bGUgdHlwZT0idGV4dC9jc3MiPiYjeGE7CS5zdDB7ZmlsbDojNjY5ZGY2O30mI3hhOwkuc3Qxe2ZpbGw6I2FlY2JmYTt9JiN4YTsJLnN0MntmaWxsOiM0Mjg1ZjQ7fSYjeGE7PC9zdHlsZT4mI3hhOwk8cGF0aCBjbGFzcz0ic3QwIiBkPSJNNTMuMjQzIDYyLjA5VjQ3LjA5NGwxMy4yMDEgOC40MTZ2MTUuMDM4em0tMzMuMDIxIDBWNDcuMDk0bDEzLjIwMSA4LjQxNnYxNS4wMzh6bTE2LjUxMS0zMi4yODVWMTQuODFsMTMuMjAxIDguNDE2djE1LjAzOHptNjIuOTk5IDMzLjk2VjI1LjQwM2wtOS41NjItMS44ODR2NDIuMTMxem0tOTkuNzg4IDBWMjUuNDAzbDkuNTYyLTEuODg0djQyLjEzMXoiLz4mI3hhOwk8cGF0aCBjbGFzcz0ic3QxIiBkPSJNNTMuMTg1IDQ3LjA5NGwxMy4yNTgtOC4yODcgMTMuMDE2IDguMjM0LTEzLjAxNiA4LjQ2OXptLTMzLjAyMSAwbDEzLjI1OC04LjI4NyAxMy4wMTYgOC4yMzQtMTMuMDE2IDguNDY5ek0zNi42NzUgMTQuODFsMTMuMjU4LTguMjg3IDEzLjAxNiA4LjIzNC0xMy4wMTYgOC40Njl6bTYzLjA1NiA0OC45NTZ2MTIuMjE3TDc3LjAxIDg5LjA1NVY3Ny43NTJ6bTAtMzguMzYzVjEzLjE4Nkw3Ny4wMS4xMTN2MTEuMzAzek0tLjA1OCA2My43NjZ2MTIuMjE3bDIyLjcyMSAxMy4wNzNWNzcuNzUyem0wLTM4LjM2M1YxMy4xODZMMjIuNjYzLjExM3YxMS4zMDN6Ii8+JiN4YTsJPHBhdGggY2xhc3M9InN0MiIgZD0iTTY2LjQ0NCA3MC41NDdWNTUuNTFsMTMuMDE2LTguNDY5djE1LjR6bS0zMy4wMjEgMFY1NS41MWwxMy4wMTYtOC40Njl2MTUuNHptMTYuNTExLTMyLjI4NVYyMy4yMjVsMTMuMDE2LTguNDY5djE1LjR6bTQ5Ljc5OCAyNS41MDNsLTkuNTYyIDUuODh2LTMuOTk2em0wLTM4LjM2M2wtOS41NjItNS44OHYzLjk5NnpNLS4wNTggNjMuNzY2bDkuNTYyIDUuODh2LTMuOTk2em0wLTM4LjM2M2w5LjU2Mi01Ljg4djMuOTk2eiIvPiYjeGE7PC9zdmc+;" vertex="1" parent="1">
                    <mxGeometry x="233" y="16" width="52" height="52" as="geometry"/>
                </mxCell>
                <mxCell id="70" value="Config Server &lt;br&gt;Container" style="sketch=0;html=1;verticalAlign=top;labelPosition=center;verticalLabelPosition=bottom;align=center;spacingTop=-6;fontSize=11;fontStyle=1;fontColor=#999999;shape=image;aspect=fixed;imageAspect=0;image=data:image/svg+xml,PHN2ZyB4bWxucz0iaHR0cDovL3d3dy53My5vcmcvMjAwMC9zdmciIHhtbG5zOnY9Imh0dHBzOi8vdmVjdGEuaW8vbmFubyIgd2lkdGg9IjM3Ny4xNTkzMDIxNjAyNjMwNSIgaGVpZ2h0PSIzMzYuMTYyNDk5MDAzMzEwOCIgdmlld0JveD0iLTAuMDU4MDAwMDA1NzgxNjUwNTQgMC4xMTI5OTk5OTgwMzMwNDY3MiA5OS43OTAwMDA5MTU1MjczNCA4OC45NDMwMDA3OTM0NTcwMyI+JiN4YTs8c3R5bGUgdHlwZT0idGV4dC9jc3MiPiYjeGE7CS5zdDB7ZmlsbDojNjY5ZGY2O30mI3hhOwkuc3Qxe2ZpbGw6I2FlY2JmYTt9JiN4YTsJLnN0MntmaWxsOiM0Mjg1ZjQ7fSYjeGE7PC9zdHlsZT4mI3hhOwk8cGF0aCBjbGFzcz0ic3QwIiBkPSJNNTMuMjQzIDYyLjA5VjQ3LjA5NGwxMy4yMDEgOC40MTZ2MTUuMDM4em0tMzMuMDIxIDBWNDcuMDk0bDEzLjIwMSA4LjQxNnYxNS4wMzh6bTE2LjUxMS0zMi4yODVWMTQuODFsMTMuMjAxIDguNDE2djE1LjAzOHptNjIuOTk5IDMzLjk2VjI1LjQwM2wtOS41NjItMS44ODR2NDIuMTMxem0tOTkuNzg4IDBWMjUuNDAzbDkuNTYyLTEuODg0djQyLjEzMXoiLz4mI3hhOwk8cGF0aCBjbGFzcz0ic3QxIiBkPSJNNTMuMTg1IDQ3LjA5NGwxMy4yNTgtOC4yODcgMTMuMDE2IDguMjM0LTEzLjAxNiA4LjQ2OXptLTMzLjAyMSAwbDEzLjI1OC04LjI4NyAxMy4wMTYgOC4yMzQtMTMuMDE2IDguNDY5ek0zNi42NzUgMTQuODFsMTMuMjU4LTguMjg3IDEzLjAxNiA4LjIzNC0xMy4wMTYgOC40Njl6bTYzLjA1NiA0OC45NTZ2MTIuMjE3TDc3LjAxIDg5LjA1NVY3Ny43NTJ6bTAtMzguMzYzVjEzLjE4Nkw3Ny4wMS4xMTN2MTEuMzAzek0tLjA1OCA2My43NjZ2MTIuMjE3bDIyLjcyMSAxMy4wNzNWNzcuNzUyem0wLTM4LjM2M1YxMy4xODZMMjIuNjYzLjExM3YxMS4zMDN6Ii8+JiN4YTsJPHBhdGggY2xhc3M9InN0MiIgZD0iTTY2LjQ0NCA3MC41NDdWNTUuNTFsMTMuMDE2LTguNDY5djE1LjR6bS0zMy4wMjEgMFY1NS41MWwxMy4wMTYtOC40Njl2MTUuNHptMTYuNTExLTMyLjI4NVYyMy4yMjVsMTMuMDE2LTguNDY5djE1LjR6bTQ5Ljc5OCAyNS41MDNsLTkuNTYyIDUuODh2LTMuOTk2em0wLTM4LjM2M2wtOS41NjItNS44OHYzLjk5NnpNLS4wNTggNjMuNzY2bDkuNTYyIDUuODh2LTMuOTk2em0wLTM4LjM2M2w5LjU2Mi01Ljg4djMuOTk2eiIvPiYjeGE7PC9zdmc+;" vertex="1" parent="1">
                    <mxGeometry x="340" y="16" width="52" height="52" as="geometry"/>
                </mxCell>
            </root>
        </mxGraphModel>
    </diagram>
</mxfile>